<svg xmlns="http://www.w3.org/2000/svg" viewBox="0 0 96 96">
<g>
  <path class="spinner2__svg" d="M89.1 24.3A17.8 17.8 0 0 0 56 32a17.7 17.7 0 0 0-15.8 0 17.8 17.8 0 1 0-9.9 17 17.8 17.8 0 0 0 8 13.7 17.8 17.8 0 1 0 19.6 0 17.8 17.8 0 0 0 8-13.7A17.8 17.8 0 0 0 89 24.2zM32.6 39a11.9 11.9 0 1 1-4.4-16.2A11.9 11.9 0 0 1 32.6 39zm27.3 38.6A11.9 11.9 0 1 1 48 65.8a11.9 11.9 0 0 1 11.9 11.9zm19.8-34.3A11.9 11.9 0 1 1 84 27.2a11.9 11.9 0 0 1-4.3 16.2z"/>
  <circle class="spinner2__svg" cx="73.71" cy="33.16" r="5.94"/>
  <circle class="spinner2__svg" cx="22.29" cy="33.16" r="5.94"/>
  <circle class="spinner2__svg" cx="48" cy="77.69" r="5.94"/>
</g>
</svg>